<mxfile host="app.diagrams.net" modified="2024-04-11T06:45:20.809Z" agent="Mozilla/5.0 (Windows NT 10.0; Win64; x64) AppleWebKit/537.36 (KHTML, like Gecko) Chrome/123.0.0.0 Safari/537.36 Edg/123.0.0.0" etag="smCcMtaQ9EXzura-1x0v" version="24.2.2" type="github">
  <diagram name="Page-1" id="Syd85vtcyYVbc08jkSv1">
    <mxGraphModel dx="2446" dy="1896" grid="1" gridSize="10" guides="1" tooltips="1" connect="1" arrows="1" fold="1" page="0" pageScale="1" pageWidth="1169" pageHeight="827" math="0" shadow="0">
      <root>
        <mxCell id="0" />
        <mxCell id="1" parent="0" />
        <mxCell id="GBS9pjqPEXnVsBJEZC-B-23" value="&lt;font style=&quot;font-size: 41px;&quot;&gt;Attach Consumables&lt;/font&gt;" style="swimlane;whiteSpace=wrap;html=1;" vertex="1" parent="1">
          <mxGeometry x="-130" y="-50" width="1900" height="1520" as="geometry" />
        </mxCell>
        <mxCell id="GBS9pjqPEXnVsBJEZC-B-14" value="" style="rounded=0;whiteSpace=wrap;html=1;" vertex="1" parent="GBS9pjqPEXnVsBJEZC-B-23">
          <mxGeometry x="290" y="100" width="1290" height="60" as="geometry" />
        </mxCell>
        <mxCell id="GBS9pjqPEXnVsBJEZC-B-15" value="" style="rounded=0;whiteSpace=wrap;html=1;" vertex="1" parent="GBS9pjqPEXnVsBJEZC-B-23">
          <mxGeometry x="290" y="180" width="1290" height="60" as="geometry" />
        </mxCell>
        <mxCell id="GBS9pjqPEXnVsBJEZC-B-16" value="" style="rounded=0;whiteSpace=wrap;html=1;" vertex="1" parent="GBS9pjqPEXnVsBJEZC-B-23">
          <mxGeometry x="290" y="260" width="1290" height="60" as="geometry" />
        </mxCell>
        <mxCell id="GBS9pjqPEXnVsBJEZC-B-17" value="Production Order" style="text;html=1;align=right;verticalAlign=middle;whiteSpace=wrap;rounded=0;fontSize=16;" vertex="1" parent="GBS9pjqPEXnVsBJEZC-B-23">
          <mxGeometry x="100" y="115" width="180" height="30" as="geometry" />
        </mxCell>
        <mxCell id="GBS9pjqPEXnVsBJEZC-B-18" value="Production Order" style="text;html=1;align=right;verticalAlign=middle;whiteSpace=wrap;rounded=0;fontSize=16;" vertex="1" parent="GBS9pjqPEXnVsBJEZC-B-23">
          <mxGeometry x="100" y="275" width="180" height="30" as="geometry" />
        </mxCell>
        <mxCell id="GBS9pjqPEXnVsBJEZC-B-19" value="Step" style="text;html=1;align=right;verticalAlign=middle;whiteSpace=wrap;rounded=0;fontSize=16;" vertex="1" parent="GBS9pjqPEXnVsBJEZC-B-23">
          <mxGeometry x="100" y="195" width="180" height="30" as="geometry" />
        </mxCell>
        <mxCell id="GBS9pjqPEXnVsBJEZC-B-20" value="&lt;font style=&quot;font-size: 19px;&quot;&gt;&amp;nbsp;&lt;/font&gt;&lt;div&gt;&lt;font style=&quot;font-size: 19px;&quot;&gt;&lt;br&gt;&lt;/font&gt;&lt;/div&gt;&lt;div&gt;&lt;font style=&quot;font-size: 19px;&quot;&gt;Search&lt;/font&gt;&lt;/div&gt;" style="rounded=1;whiteSpace=wrap;html=1;" vertex="1" parent="GBS9pjqPEXnVsBJEZC-B-23">
          <mxGeometry x="1630" y="100" width="160" height="220" as="geometry" />
        </mxCell>
        <mxCell id="GBS9pjqPEXnVsBJEZC-B-21" value="" style="shadow=0;dashed=0;html=1;strokeColor=none;fillColor=#4495D1;labelPosition=center;verticalLabelPosition=bottom;verticalAlign=top;align=center;outlineConnect=0;shape=mxgraph.veeam.magnifying_glass;pointerEvents=1;" vertex="1" parent="GBS9pjqPEXnVsBJEZC-B-23">
          <mxGeometry x="1690" y="170" width="40" height="40" as="geometry" />
        </mxCell>
        <mxCell id="GBS9pjqPEXnVsBJEZC-B-25" value="&lt;font style=&quot;font-size: 22px;&quot;&gt;334XXXXXXXXX&lt;/font&gt;" style="rounded=0;whiteSpace=wrap;html=1;align=left;" vertex="1" parent="GBS9pjqPEXnVsBJEZC-B-23">
          <mxGeometry x="290" y="440" width="1500" height="60" as="geometry" />
        </mxCell>
        <mxCell id="GBS9pjqPEXnVsBJEZC-B-26" value="Scan consumable" style="text;html=1;align=right;verticalAlign=middle;whiteSpace=wrap;rounded=0;fontSize=20;" vertex="1" parent="GBS9pjqPEXnVsBJEZC-B-23">
          <mxGeometry x="70" y="455" width="210" height="30" as="geometry" />
        </mxCell>
        <mxCell id="GBS9pjqPEXnVsBJEZC-B-27" value="&lt;span style=&quot;font-size: 22px;&quot;&gt;334XXXXXXXXX_0001&lt;/span&gt;" style="rounded=0;whiteSpace=wrap;html=1;align=left;" vertex="1" parent="GBS9pjqPEXnVsBJEZC-B-23">
          <mxGeometry x="290" y="500" width="1500" height="60" as="geometry" />
        </mxCell>
        <mxCell id="GBS9pjqPEXnVsBJEZC-B-28" value="&lt;span style=&quot;font-size: 22px;&quot;&gt;334XXXXXXXXX_0002&lt;/span&gt;" style="rounded=0;whiteSpace=wrap;html=1;align=left;" vertex="1" parent="GBS9pjqPEXnVsBJEZC-B-23">
          <mxGeometry x="290" y="560" width="1500" height="60" as="geometry" />
        </mxCell>
        <mxCell id="GBS9pjqPEXnVsBJEZC-B-29" value="&lt;span style=&quot;font-size: 22px;&quot;&gt;334XXXXXXXXX_0003&lt;/span&gt;" style="rounded=0;whiteSpace=wrap;html=1;align=left;" vertex="1" parent="GBS9pjqPEXnVsBJEZC-B-23">
          <mxGeometry x="290" y="620" width="1500" height="60" as="geometry" />
        </mxCell>
        <mxCell id="GBS9pjqPEXnVsBJEZC-B-30" value="&lt;span style=&quot;font-size: 22px;&quot;&gt;334XXXXXXXXX_0004&lt;/span&gt;" style="rounded=0;whiteSpace=wrap;html=1;align=left;" vertex="1" parent="GBS9pjqPEXnVsBJEZC-B-23">
          <mxGeometry x="290" y="680" width="1500" height="60" as="geometry" />
        </mxCell>
        <mxCell id="GBS9pjqPEXnVsBJEZC-B-24" value="" style="endArrow=none;html=1;rounded=0;exitX=0;exitY=0.25;exitDx=0;exitDy=0;entryX=1;entryY=0.25;entryDx=0;entryDy=0;" edge="1" parent="1" source="GBS9pjqPEXnVsBJEZC-B-23" target="GBS9pjqPEXnVsBJEZC-B-23">
          <mxGeometry width="50" height="50" relative="1" as="geometry">
            <mxPoint x="710" y="590" as="sourcePoint" />
            <mxPoint x="760" y="540" as="targetPoint" />
          </mxGeometry>
        </mxCell>
      </root>
    </mxGraphModel>
  </diagram>
</mxfile>
